<?xml version="1.0" encoding="UTF-8" standalone="no"?>
<!DOCTYPE svg PUBLIC "-//W3C//DTD SVG 1.0//EN" "http://www.w3.org/TR/2001/PR-SVG-20010719/DTD/svg10.dtd">
<svg width="47cm" height="38cm" viewBox="-500 -268 934 741" xmlns="http://www.w3.org/2000/svg" xmlns:xlink="http://www.w3.org/1999/xlink">
  <g>
    <ellipse style="fill: none; fill-opacity:0; stroke-width: 2; stroke: #000000" cx="-56" cy="-119.365" rx="152" ry="78.2169"/>
    <ellipse style="fill: none; fill-opacity:0; stroke-width: 2; stroke: #000000" cx="-53.5" cy="-96.8648" rx="213.5" ry="112"/>
    <ellipse style="fill: none; fill-opacity:0; stroke-width: 2; stroke: #000000" cx="-49.3" cy="-61.4648" rx="274.3" ry="155.6"/>
    <ellipse style="fill: none; fill-opacity:0; stroke-width: 2; stroke: #000000" cx="-50.5" cy="-34.8648" rx="315.5" ry="192"/>
    <ellipse style="fill: none; fill-opacity:0; stroke-width: 2; stroke-dasharray: 4; stroke: #000000" cx="-43.5" cy="-11.8648" rx="341.5" ry="225"/>
    <ellipse style="fill: none; fill-opacity:0; stroke-width: 2; stroke-dasharray: 4; stroke: #000000" cx="-45.3" cy="-6.46476" rx="341.5" ry="225"/>
    <ellipse style="fill: none; fill-opacity:0; stroke-width: 2; stroke: #000000" cx="-43.2699" cy="13.0754" rx="365.681" ry="255.679"/>
    <ellipse style="fill: none; fill-opacity:0; stroke-width: 2; stroke: #000000" cx="-39.1077" cy="39.8325" rx="415.033" ry="290.572"/>
    <ellipse style="fill: none; fill-opacity:0; stroke-width: 2; stroke: #000000" cx="-36.1347" cy="64.617" rx="433.466" ry="324.059"/>
    <ellipse style="fill: none; fill-opacity:0; stroke-width: 2; stroke: #000000" cx="-40.2969" cy="102.672" rx="457.844" ry="369.438"/>
    <g>
      <ellipse style="fill: #ffff00" cx="-55.5" cy="-139.365" rx="41.5" ry="40.5"/>
      <ellipse style="fill: none; fill-opacity:0; stroke-width: 2; stroke: #000000" cx="-55.5" cy="-139.365" rx="41.5" ry="40.5"/>
    </g>
    <g>
      <ellipse style="fill: #000000" cx="73.7948" cy="75.8938" rx="10.6667" ry="12"/>
      <ellipse style="fill: none; fill-opacity:0; stroke-width: 2; stroke: #000000" cx="73.7948" cy="75.8938" rx="10.6667" ry="12"/>
    </g>
    <g>
      <ellipse style="fill: #000000" cx="419.128" cy="91.8938" rx="14" ry="14"/>
      <ellipse style="fill: none; fill-opacity:0; stroke-width: 2; stroke: #000000" cx="419.128" cy="91.8938" rx="14" ry="14"/>
    </g>
    <g>
      <ellipse style="fill: #000000" cx="223.128" cy="322.56" rx="14" ry="14"/>
      <ellipse style="fill: none; fill-opacity:0; stroke-width: 1; stroke: #000000" cx="223.128" cy="322.56" rx="14" ry="14"/>
    </g>
    <g>
      <ellipse style="fill: #000000" cx="45.7948" cy="321.227" rx="22.6667" ry="22.6667"/>
      <ellipse style="fill: none; fill-opacity:0; stroke-width: 1; stroke: #000000" cx="45.7948" cy="321.227" rx="22.6667" ry="22.6667"/>
    </g>
    <g>
      <ellipse style="fill: #000000" cx="-194.772" cy="242.26" rx="29.9" ry="28.3"/>
      <ellipse style="fill: none; fill-opacity:0; stroke-width: 1; stroke: #000000" cx="-194.772" cy="242.26" rx="29.9" ry="28.3"/>
    </g>
    <g>
      <ellipse style="fill: #000000" cx="-208.938" cy="-127.906" rx="6.73333" ry="6.46667"/>
      <ellipse style="fill: none; fill-opacity:0; stroke-width: 0.4; stroke: #000000" cx="-208.938" cy="-127.906" rx="6.73333" ry="6.46667"/>
    </g>
    <g>
      <ellipse style="fill: #000000" cx="-228.872" cy="-34.7728" rx="9.33333" ry="9.33333"/>
      <ellipse style="fill: none; fill-opacity:0; stroke-width: 0.4; stroke: #000000" cx="-228.872" cy="-34.7728" rx="9.33333" ry="9.33333"/>
    </g>
    <g>
      <ellipse style="fill: #000000" cx="7.12813" cy="150.56" rx="9.33333" ry="9.33333"/>
      <ellipse style="fill: none; fill-opacity:0; stroke-width: 0.4; stroke: #000000" cx="7.12813" cy="150.56" rx="9.33333" ry="9.33333"/>
    </g>
  </g>
</svg>
